<?xml version="1.0" encoding="UTF-8" standalone="no"?>
<!-- Created with Inkscape (http://www.inkscape.org/) -->

<svg
   width="32"
   height="32"
   viewBox="0 0 8.4666666 8.4666666"
   version="1.1"
   id="svg5"
   inkscape:version="1.2 (dc2aeda, 2022-05-15)"
   sodipodi:docname="_favicon.svg"
   xmlns:inkscape="http://www.inkscape.org/namespaces/inkscape"
   xmlns:sodipodi="http://sodipodi.sourceforge.net/DTD/sodipodi-0.dtd"
   xmlns="http://www.w3.org/2000/svg"
   xmlns:svg="http://www.w3.org/2000/svg">
  <sodipodi:namedview
     id="namedview7"
     pagecolor="#ffffff"
     bordercolor="#666666"
     borderopacity="1.0"
     inkscape:showpageshadow="2"
     inkscape:pageopacity="0.0"
     inkscape:pagecheckerboard="0"
     inkscape:deskcolor="#d1d1d1"
     inkscape:document-units="px"
     showgrid="false"
     inkscape:zoom="17.174362"
     inkscape:cx="20.146309"
     inkscape:cy="19.098235"
     inkscape:window-width="1920"
     inkscape:window-height="1031"
     inkscape:window-x="0"
     inkscape:window-y="25"
     inkscape:window-maximized="1"
     inkscape:current-layer="layer1" />
  <defs
     id="defs2" />
  <g
     inkscape:label="Layer 1"
     inkscape:groupmode="layer"
     id="layer1">
    <g
       id="g4197"
       transform="matrix(0.37673714,0,0,0.37673714,-0.46933584,-0.76608281)">
      <path
         id="path184"
         style="fill:#000000;fill-opacity:1;fill-rule:evenodd;stroke:none;stroke-width:0.529;stroke-linecap:round;stroke-linejoin:round"
         d="M 13.247253,2.0334676 A 7.1153331,7.1153331 0 0 0 6.1319254,9.1487955 7.1153331,7.1153331 0 0 0 7.246586,12.964066 5.460391,5.460391 0 0 1 6.7902831,10.788489 5.460391,5.460391 0 0 1 12.250932,5.3283569 a 5.460391,5.460391 0 0 1 5.460131,5.4601321 5.460391,5.460391 0 0 1 -5.078759,5.446179 7.1153331,7.1153331 0 0 0 0.614949,0.02946 7.1153331,7.1153331 0 0 0 7.115328,-7.1153275 7.1153331,7.1153331 0 0 0 -7.115328,-7.1153279 z" />
      <path
         style="fill:#000000;fill-opacity:1;fill-rule:evenodd;stroke:none;stroke-width:0.264583;stroke-linecap:butt;stroke-linejoin:miter;stroke-dasharray:none;stroke-opacity:1"
         d="m 12.692804,10.095707 c 0,0 -4.5908872,3.710407 -6.4240172,7.81891 -1.8331301,4.108502 -1.6618693,6.570492 -1.6618693,6.570492 l 5.5997465,0.02203 c 0,0 -0.8154084,-3.311024 -0.141469,-6.956727 0.673939,-3.645704 2.62761,-7.454705 2.627609,-7.454705 z"
         id="path2565"
         sodipodi:nodetypes="czcczc" />
    </g>
  </g>
</svg>
